<?xml version="1.0" encoding="utf-8"?>
<!-- Generator: Adobe Illustrator 24.1.2, SVG Export Plug-In . SVG Version: 6.00 Build 0)  -->
<svg version="1.1" id="Layer_2" xmlns="http://www.w3.org/2000/svg" xmlns:xlink="http://www.w3.org/1999/xlink" x="0px" y="0px"
	 width="1216px" height="684px" viewBox="0 0 1216 684" style="enable-background:new 0 0 1216 684;" xml:space="preserve">
<style type="text/css">
	.st0{fill:#1063FF;}
	.st1{fill:#FF7EB6;}
	.st2{fill:#BE95FF;}
	.st3{fill:#C1C7CD;}
	.st4{fill:#FFFFFF;}
</style>
<rect class="st0" width="608" height="342"/>
<rect x="608" class="st1" width="608" height="342"/>
<rect y="342" class="st2" width="608" height="342"/>
<rect x="608" y="342" class="st3" width="608" height="342"/>
<path id="IBM_alternating_1_" class="st4" d="M194,127.1h42.8v17.8h-12.2v52.2h12.2v17.8H194v-17.8h12.2v-52.2H194V127.1z
	 M311.2,191.5c0,12.9-10.4,23.4-23.3,23.4h-45v-17.8h12.2v-52.2h-12.2v-17.8h45c12.9,0,23.3,10.5,23.3,23.4c0,8.9-5,16.6-12.2,20.5
	C306.3,175,311.2,182.7,311.2,191.5z M308.2,191.5c0-8.3-4.5-15.6-15.2-20.5c9.2-4.2,15.2-10.3,15.2-20.5c0-11.2-9.1-20.3-20.3-20.3
	l-41.9,0v11.7h12.2v58.3h-12.2v11.7l41.9,0C299.1,211.8,308.2,202.7,308.2,191.5z M293.7,141.8v23.3h-23.3v-23.3H293.7z
	 M290.7,144.9h-17.2v17.2h17.2V144.9z M293.7,176.8v23.3h-23.3v-23.3H293.7z M290.7,179.9h-17.2v17.2h17.2V179.9z M365.1,214.9
	l2.1-6.1H363L365.1,214.9z M361,203.2h8.1l2.1-6.1h-12.4L361,203.2z M356.9,191.6h16.3l2.1-6.1h-20.6L356.9,191.6z M352.8,179.9
	h24.5l2.1-6.1h-28.8L352.8,179.9z M328.4,156.6h33l-2.1-6.1h-30.9V156.6z M372.8,144.9H414v-6.1h-39.1L372.8,144.9z M379,127.1
	l-2.1,6.1H414v-6.1H379z M316.2,214.9h30.6v-6.1h-30.6V214.9z M316.2,203.2h30.6v-6.1h-30.6V203.2z M328.4,191.6h18.3v-6.1h-18.3
	V191.6z M328.4,179.9h18.3v-6.1h-18.3V179.9z M401.8,150.4h-30.9l-2.1,6.1h33V150.4z M383.4,168.2h18.3v-6.1h-34.9l-1.7,4.9
	l-1.7-4.9h-34.9v6.1h18.3v-5.6l2,5.6h32.7l2-5.6V168.2z M401.8,173.8h-18.3v6.1h18.3V173.8z M383.4,191.6h18.3v-6.1h-18.3V191.6z
	 M383.4,203.2H414v-6.1h-30.6V203.2z M383.4,214.9H414v-6.1h-30.6V214.9z M357.4,144.9l-2.1-6.1h-39.1l0,6.1H357.4z M353.3,133.2
	l-2.1-6.1h-35l0,6.1H353.3z"/>
<path id="IBM_Mixed_1_" d="M814.2,168.2h18.3v-6.1h-18.3V168.2z M832.6,150.4h-18.3v6.1h18.3V150.4z M802,144.9h42.8v-6.1H802V144.9
	z M802,133.2h42.8v-6.1H802V133.2z M832.6,173.8v23.3h12.2v17.8H802v-17.8h12.2v-23.3H832.6z M890.3,133.2h21.3
	c-4.1-3.8-9.7-6.1-15.7-6.1h-45v17.8h12.2v23.3H911c2-1.7,3.8-3.8,5.1-6.1h-34.6l0-17.2h37.1c-0.5-2.2-1.4-4.2-2.5-6.1h-25.8V133.2z
	 M898.7,156.6h19.7c0.5-1.9,0.8-4,0.8-6.1h-20.6V156.6z M863.1,191.6h18.3v-6.1h-18.3V191.6z M895.9,214.9
	c12.9,0,23.3-10.5,23.3-23.4c0-7.1-3.1-13.4-8.1-17.7l-48,0v6.1h35.6v17.2h-47.8v6.1h39.4v5.6h-39.4v6.1H895.9z M973.1,167.1
	l-13.9-39.9l-35,0v17.8h12.2v23.3h18.3v-5.6l2,5.6l21.8,0h10.9l2-5.6v5.6h18.3v-6.1h-34.9L973.1,167.1z M991.4,173.8v41.1l30.6,0
	v-17.8h-12.2v-23.3H991.4z M924.2,214.9h30.6v-6.1h-30.6V214.9z M924.2,203.2h30.6v-6.1h-30.6V203.2z M936.4,191.6h18.3v-6.1h-18.3
	V191.6z M936.4,179.9h18.3v-6.1h-18.3V179.9z M969,203.2l-2.1-6.1h6.2v-5.6l-8.2,0l-2.1-6.1h10.3v-5.6h-12.3l-2.1-6.1h28.8
	l-14.4,41.1l-2.1-6.1l2.1,0v-5.6L969,203.2z M980.8,144.9h41.2v-6.1h-39.1L980.8,144.9z M987,127.1l-2.1,6.1h37.1v-6.1H987z
	 M1009.8,150.4h-30.9l-2.1,6.1h33V150.4z"/>
<g id="IBM_Outlined_1_">
	<path d="M844.8,486.9v-17.8H802v17.8h12.2v52.2H802v17.8h42.8v-17.8h-12.2v-52.2H844.8z M839.2,544.7v6.7h-31.7v-6.7h12.2v-63.3
		h-12.2v-6.7h31.7v6.7H827v63.3H839.2z"/>
	<path d="M1022,486.9v-17.8l-35,0l-13.9,37l-13.9-37l-35,0v17.8h12.2v52.2h-12.2v17.8l30.6,0v-47.5l18.3,47.5l18.3-47.5v47.5l30.6,0
		v-17.8h-12.2v-52.2H1022z M1016.4,544.7v6.7H997v-57.5h-5.4l-18.5,47.7l-18.4-47.7h-5.5v57.5h-19.4v-6.7H942v-63.3h-12.2v-6.7h25.5
		l17.8,46.8l17.8-46.8h25.5v6.7h-12.2v63.3H1016.4z"/>
	<path d="M907.1,513c7.3-4,12.2-11.7,12.2-20.5c0-12.9-10.4-23.4-23.3-23.4h-45v17.8h12.2v52.2h-12.2v17.8h45
		c12.9,0,23.3-10.5,23.3-23.4C919.2,524.7,914.3,517,907.1,513z M895.9,551.3h-39.4v-6.7h12.2v-63.3h-12.2v-6.7h39.4
		c9.8,0,17.8,8,17.8,17.8c0,6.5-3.6,12.5-9.3,15.6l-0.2,0.1v-26.9h-28.3v28.3h22.8v6.7h-22.8v28.3h28.3v-26.9l0.2,0.1
		c5.7,3.1,9.3,9.1,9.3,15.6C913.7,543.3,905.7,551.3,895.9,551.3z M898.7,486.9v17.2h-17.2v-17.2H898.7z M898.7,521.9v17.2h-17.2
		v-17.2H898.7z"/>
</g>
<path id="IBM_blend_1_" d="M401.8,486.9v52.2H414v17.8l-30.6,0v-52.3l-18.3,52.3l-18.3-52.3v52.3l-30.6,0v-17.8h12.2v-52.2h-12.2
	v-17.8l35,0l13.9,39.9l13.9-39.9l35,0v17.8H401.8z M310.6,486.9c-2.5-10.2-11.7-17.8-22.7-17.8h-45v17.8H310.6z M242.9,539.1v17.8
	h45c11,0,20.2-7.6,22.7-17.8L242.9,539.1z M311.2,533.6C311.2,533.5,311.2,533.5,311.2,533.6c0-7.1-3.2-13.5-8.2-17.8h-47.9v17.8
	h18.3v-11.7h17.2v11.7H311.2z M303,510.2c5-4.3,8.2-10.6,8.2-17.7c0,0,0,0,0,0h-20.6l0,11.7h-17.2v-11.7h-18.3v17.8H303z M194,556.9
	h42.8v-6.1H194V556.9z M194,545.2h42.8v-6.1H194V545.2z M206.2,533.6h18.3v-6.1h-18.3V533.6z M206.2,521.9h18.3v-6.1h-18.3V521.9z
	 M206.2,510.2h18.3v-6.1h-18.3V510.2z M224.6,492.4h-18.3v6.1h18.3V492.4z M194,486.9h42.8v-6.1H194V486.9z M194,475.2h42.8v-6.1
	H194V475.2z"/>
</svg>
